HIERARCHY
ROOT Hips
{
	OFFSET -3.958830 18.904000 13.208200
	CHANNELS 6 Xposition Yposition Zposition Zrotation Yrotation Xrotation 
	JOINT LHipJoint
	{
		OFFSET 0.000000 0.000000 0.000000
		CHANNELS 3 Zrotation Yrotation Xrotation
		JOINT LeftUpLeg
		{
			OFFSET 1.800000 -1.400000 0.085000
			CHANNELS 3 Zrotation Yrotation Xrotation
			JOINT LeftLeg
			{
				OFFSET 2.215000 -6.000000 0.000000
				CHANNELS 3 Zrotation Yrotation Xrotation
				JOINT LeftFoot
				{
					OFFSET 2.500000 -6.900000 0.000000
					CHANNELS 3 Zrotation Yrotation Xrotation
					JOINT LeftToeBase
					{
						OFFSET 0.200000 -0.500000 1.950000
						CHANNELS 3 Zrotation Yrotation Xrotation
						End Site
						{
							OFFSET 0.000000 0.000000 0.000000
						}
					}
				}
			}
		}
	}
	JOINT RHipJoint
	{
		OFFSET 0.000000 0.000000 0.000000
		CHANNELS 3 Zrotation Yrotation Xrotation
		JOINT RightUpLeg
		{
			OFFSET -1.800000 -1.400000 0.085000
			CHANNELS 3 Zrotation Yrotation Xrotation
			JOINT RightLeg
			{
				OFFSET -2.215000 -6.000000 0.000000
				CHANNELS 3 Zrotation Yrotation Xrotation
				JOINT RightFoot
				{
					OFFSET -2.500000 -6.900000 0.000000
					CHANNELS 3 Zrotation Yrotation Xrotation
					JOINT RightToeBase
					{
						OFFSET -0.200000 -0.500000 1.950000
						CHANNELS 3 Zrotation Yrotation Xrotation
						End Site
						{
							OFFSET 0.000000 0.000000 0.000000
						}
					}
				}
			}
		}
	}
	JOINT LowerBack
	{
		OFFSET 0.000000 0.000000 0.000000
		CHANNELS 3 Zrotation Yrotation Xrotation
		JOINT Spine
		{
			OFFSET -0.087000 1.940000 -0.288900
			CHANNELS 3 Zrotation Yrotation Xrotation
			JOINT Spine1
			{
				OFFSET 0.000000 1.950000 0.060000
				CHANNELS 3 Zrotation Yrotation Xrotation
				JOINT Neck
				{
					OFFSET 0.000000 0.000000 0.000000
					CHANNELS 3 Zrotation Yrotation Xrotation
					JOINT Neck1
					{
						OFFSET 0.000000 1.600000 0.340000
						CHANNELS 3 Zrotation Yrotation Xrotation
						JOINT Head
						{
							OFFSET 0.000000 1.667000 -0.240000
							CHANNELS 3 Zrotation Yrotation Xrotation
							End Site
							{
								OFFSET 0.000000 0.000000 0.000000
							}
						}
					}
				}
				JOINT LeftShoulder
				{
					OFFSET 0.000000 0.000000 0.000000
					CHANNELS 3 Zrotation Yrotation Xrotation
					JOINT LeftArm
					{
						OFFSET 2.700000 1.550000 -0.730000
						CHANNELS 3 Zrotation Yrotation Xrotation
						JOINT LeftForeArm
						{
							OFFSET 5.450000 0.000000 0.000000
							CHANNELS 3 Zrotation Yrotation Xrotation
							JOINT LeftHand
							{
								OFFSET 3.450000 0.000000 0.000000
								CHANNELS 3 Zrotation Yrotation Xrotation
								JOINT LeftHandIndex1
								{
									OFFSET 0.750000 0.000000 0.000000
									CHANNELS 3 Zrotation Yrotation Xrotation
									End Site
									{
										OFFSET 0.000000 0.000000 0.000000
									}
								}
							}
						}
					}
				}
				JOINT RightShoulder
				{
					OFFSET 0.000000 0.000000 0.000000
					CHANNELS 3 Zrotation Yrotation Xrotation
					JOINT RightArm
					{
						OFFSET -2.700000 1.550000 -0.730000
						CHANNELS 3 Zrotation Yrotation Xrotation
						JOINT RightForeArm
						{
							OFFSET -5.450000 0.000000 0.000000
							CHANNELS 3 Zrotation Yrotation Xrotation
							JOINT RightHand
							{
								OFFSET -3.450000 0.000000 0.000000
								CHANNELS 3 Zrotation Yrotation Xrotation
								JOINT RightHandIndex1
								{
									OFFSET -0.750000 0.000000 0.000000
									CHANNELS 3 Zrotation Yrotation Xrotation
									End Site
									{
										OFFSET 0.000000 0.000000 0.000000
									}
								}
							}
						}
					}
				}
			}
		}
	}
}
MOTION
Frames: 11
Frame Time: 0.016667
-1.911440 18.308330 3.239720 -14.838796 -4.496999 -3.748726 -15.112098 11.947283 2.285711 17.621350 -0.917589 -29.456407 2.092827 7.082324 31.560998 -1.065424 6.322420 2.217956 -0.363370 -0.541280 -0.535780 18.652779 -7.973011 6.155101 -22.647113 13.114098 -44.335539 57.976480 -46.221213 52.230016 -3.059608 -14.082179 -0.075659 -0.158180 0.939600 0.203350 -4.190340 -2.405608 -9.197453 12.769205 -5.211064 47.150715 -6.503659 0.836164 12.123134 0.627772 -8.285821 -14.988665 -19.585856 9.047759 39.277976 5.768630 -0.816420 -24.465080 -15.502059 -29.973644 6.305560 -17.479902 -9.568713 -18.369453 66.761116 -65.615703 -48.255156 -3.897790 1.321569 1.015920 0.164430 -0.064800 0.052010 14.852327 35.976149 11.554402 29.885148 15.574758 -26.518159 -65.422932 73.382220 -49.924991 1.092733 1.137893 -0.724280 0.951060 0.867920 -0.007300 
-1.907150 18.276200 3.192110 -13.437172 -4.025903 -3.208698 -15.197337 11.767233 2.796742 19.515037 -1.439811 -30.911325 -2.382907 8.824426 32.247432 -0.986555 6.950801 1.960924 -0.375660 -0.548660 -0.520620 18.595590 -7.867147 5.852242 -22.835438 13.061333 -42.831463 51.714428 -39.334458 50.472405 -2.763367 -13.310621 0.057148 -0.170210 0.913710 0.205850 -4.002730 -2.575412 -9.301350 11.201590 -4.772179 47.979130 -5.691165 0.892264 12.108331 0.712892 -7.968399 -14.818695 -18.817631 8.566095 39.228567 4.787330 -0.497680 -25.265660 -15.149500 -29.926717 6.276528 -17.397153 -10.336246 -18.183410 67.488703 -64.845840 -48.206020 -3.911874 1.336339 1.017770 0.155110 -0.047860 0.034130 14.305130 35.948946 11.391653 29.161279 15.950517 -26.137226 -68.438128 72.033903 -51.093386 1.109492 1.193728 -0.718020 0.937720 0.866430 -0.015310 
-1.904710 18.226040 3.158010 -11.892041 -3.435158 -2.539859 -15.268558 11.580679 3.366653 21.395851 -2.104107 -32.216912 -6.973948 10.471756 32.427043 -0.873435 7.586997 1.718396 -0.370580 -0.529890 -0.499870 18.541720 -7.874363 5.441283 -22.416491 12.518906 -40.892019 44.758551 -32.849348 48.491739 -2.392142 -12.274275 0.273017 -0.171780 0.891770 0.204050 -3.839938 -2.644459 -9.371518 9.770427 -4.401048 48.079879 -5.081414 0.894751 12.500906 0.770151 -7.445746 -14.738925 -17.578585 8.007438 39.266105 3.933150 -0.164560 -25.381150 -14.742721 -30.121099 6.363191 -17.346503 -10.892914 -18.142906 67.269455 -63.888440 -47.398096 -3.926283 1.402500 1.000290 0.152500 -0.035850 0.029230 13.753758 35.962661 11.347490 28.624493 16.235353 -25.856359 -70.667760 70.604429 -51.952906 1.152572 1.159630 -0.700830 0.922000 0.845890 -0.015400 
-1.903950 18.142170 3.141170 -10.553793 -3.555828 -1.699799 -15.326144 11.370673 3.955449 23.677544 -2.497078 -33.102832 -11.949200 12.106622 31.691830 -0.762979 8.256024 1.468587 -0.391020 -0.546360 -0.507650 18.503062 -7.935847 4.991179 -21.522853 12.016103 -39.215519 38.149603 -27.133582 46.152924 -1.970381 -11.066222 0.566441 -0.179970 0.886820 0.192880 -3.724664 -2.594115 -9.424773 8.792027 -4.011276 47.738742 -4.850989 1.072764 12.441243 0.850343 -7.106716 -14.516207 -16.738563 7.696203 39.130004 3.250250 0.144300 -25.223940 -14.497612 -29.772641 6.355403 -17.628400 -11.477198 -17.761696 67.042678 -63.223729 -46.739310 -3.926683 1.414224 0.991480 0.159620 -0.045840 0.019950 13.286964 35.585777 11.196743 28.469116 16.613498 -25.323071 -72.039447 69.898378 -52.526265 1.147525 1.185449 -0.709100 0.914430 0.849850 -0.023190 
-1.901230 18.038270 3.133410 -9.369848 -3.715838 -0.942441 -15.370464 11.145465 4.537242 25.902086 -2.841626 -33.845157 -16.929325 13.515976 30.513853 -0.591460 8.856794 1.264204 -0.367830 -0.517380 -0.491150 18.478948 -8.027096 4.540434 -20.603014 11.234081 -37.693551 32.711820 -22.550259 43.314300 -1.590845 -9.828386 0.898262 -0.182890 0.867400 0.200820 -3.649208 -2.479321 -9.465377 8.284967 -3.889411 47.259195 -4.869032 1.125129 12.362039 0.958935 -6.926816 -14.344719 -16.244612 7.379327 38.778423 2.666600 0.296970 -24.861750 -14.428991 -29.451045 6.346646 -17.724960 -11.954723 -17.430072 67.235038 -62.895631 -46.575937 -3.907338 1.456689 0.964060 0.157920 -0.039970 0.035170 12.947269 35.258914 11.088600 28.181075 16.839407 -24.740867 -73.873751 69.362722 -53.601823 1.159581 1.200693 -0.675870 0.880360 0.814590 -0.014770 
-1.905680 17.922890 3.135040 -8.246780 -4.089185 -0.528477 -15.413409 10.946613 5.062689 27.902359 -3.076516 -34.420429 -21.545936 14.829214 29.588009 -0.408872 9.457768 1.059395 -0.358210 -0.510150 -0.478460 18.456502 -8.114939 4.130257 -19.774035 10.464914 -36.287702 28.365960 -19.144647 40.714079 -1.280220 -8.754289 1.190005 -0.192180 0.847330 0.219450 -3.577585 -2.371341 -9.504469 7.749965 -3.643818 46.946851 -4.908850 1.314188 12.276916 1.035621 -6.716136 -14.318289 -15.782646 7.186259 38.661851 2.466170 0.452870 -24.422600 -14.572814 -29.393482 6.346158 -17.555840 -12.302871 -17.207384 67.491419 -62.535591 -46.429432 -3.908596 1.514577 0.944060 0.153420 -0.031040 0.036670 12.894965 35.160355 11.126921 27.722441 16.810174 -24.329622 -75.792041 68.893557 -54.807238 1.192840 1.208586 -0.646460 0.838110 0.796090 -0.009200 
-1.912020 17.805950 3.136250 -7.050477 -4.042295 -0.461855 -15.440919 10.777753 5.467968 29.267375 -3.449526 -34.902892 -25.469740 15.864454 28.929347 -0.299446 9.978169 0.882076 -0.382000 -0.554540 -0.483020 18.446115 -8.191426 3.813886 -19.617647 9.590070 -35.224807 25.421427 -17.082546 38.732122 -1.055947 -8.024375 1.398550 -0.206300 0.851850 0.232510 -3.537503 -2.271499 -9.533335 7.439144 -3.667907 46.924324 -5.187815 1.299716 12.345093 1.174559 -6.508038 -14.295485 -15.328479 6.924719 38.565804 1.987460 0.444210 -24.394940 -14.721500 -29.551689 6.263740 -16.972832 -12.521781 -17.109387 67.753666 -61.964536 -46.167447 -3.961497 1.539510 0.953810 0.165760 -0.043440 0.015410 12.728189 35.160094 11.201513 27.273125 16.823826 -24.051762 -78.201447 68.211705 -56.413987 1.201658 1.250108 -0.660410 0.828590 0.825880 -0.026380 
-1.923440 17.689040 3.140710 -6.081823 -3.611798 -0.701517 -15.445100 10.575395 5.772604 30.461007 -3.789659 -35.345320 -28.754051 16.773527 28.605416 -0.184828 10.409926 0.748209 -0.394560 -0.572640 -0.475690 18.464788 -8.236281 3.607722 -20.009498 8.828774 -34.425605 24.206239 -16.263517 37.519009 -0.957516 -7.685895 1.481153 -0.211040 0.850660 0.233860 -3.569097 -2.096668 -9.575259 7.772331 -4.136446 47.177277 -5.823564 1.073463 12.639289 1.354127 -6.374615 -14.351112 -15.014020 6.565647 38.391915 1.661190 0.268670 -24.729370 -14.705180 -29.936134 6.188201 -16.090312 -12.538444 -17.265750 67.851075 -61.220256 -45.675060 -4.005211 1.578791 0.959860 0.163120 -0.042460 -0.000160 12.325283 35.292276 11.349737 26.856706 16.731480 -23.968685 -81.154550 67.510379 -58.755147 1.248779 1.293142 -0.669110 0.833640 0.839140 -0.032450 
-1.938280 17.579480 3.139880 -5.332190 -2.718091 -1.184727 -15.442233 10.369269 5.979987 31.349600 -4.208688 -36.000907 -31.103568 17.619800 29.012799 -0.089519 10.781256 0.633334 -0.399140 -0.583880 -0.478150 18.495930 -8.206024 3.535318 -21.146094 8.195013 -34.065720 24.669378 -16.603214 37.162366 -0.971380 -7.763721 1.440215 -0.217640 0.845510 0.247180 -3.622840 -1.958097 -9.647163 8.498265 -4.946044 47.939078 -6.642913 0.690923 12.617445 1.677860 -6.217105 -14.512899 -14.786218 6.159460 38.492914 1.287040 -0.018710 -25.255310 -15.127710 -30.575770 6.062640 -14.786971 -12.455258 -17.511595 68.111115 -60.503622 -45.179841 -4.062686 1.642576 0.977900 0.158600 -0.033020 -0.004380 12.070092 35.581828 11.578645 26.347412 16.304384 -24.044079 -84.150713 66.736787 -61.168912 1.301416 1.294777 -0.670440 0.829370 0.849770 -0.036630 
-1.959320 17.482210 3.134590 -4.720040 -1.575821 -1.757674 -15.431392 10.168662 6.097120 31.905472 -4.652708 -36.723737 -32.637595 18.409143 29.864404 0.017112 11.056131 0.551262 -0.375960 -0.557220 -0.461460 18.538791 -8.121578 3.573263 -22.760657 7.680614 -34.250056 25.974244 -17.671412 37.669470 -1.056823 -8.107930 1.326651 -0.215820 0.818620 0.252280 -3.697654 -1.842925 -9.733682 9.454421 -5.906530 48.851622 -7.492969 0.237553 12.457967 1.975085 -6.109416 -14.768505 -14.794933 5.964876 38.824585 1.194450 -0.214680 -25.512460 -15.705381 -31.381504 5.935139 -13.208262 -12.363080 -17.807382 67.803171 -59.814612 -44.157099 -4.109294 1.744150 0.977150 0.143550 -0.015960 -0.000060 12.013290 35.994468 11.811507 25.632454 15.592939 -24.272217 -86.313111 65.890968 -62.758308 1.374993 1.205585 -0.646400 0.811260 0.829710 -0.034850 
-1.989010 17.398120 3.126400 -4.043549 -0.150253 -2.420241 -15.432138 10.044900 6.163562 32.025016 -5.282961 -37.567971 -33.421165 19.104574 31.154602 0.102646 11.284247 0.478579 -0.389750 -0.568690 -0.459900 18.561790 -8.024892 3.630572 -24.436210 7.043161 -34.386642 27.354430 -18.860833 38.215825 -1.135452 -8.467229 1.200414 -0.231650 0.795050 0.251160 -3.719558 -1.860807 -9.811047 10.059455 -6.743565 49.908828 -7.988366 -0.251136 11.897941 2.269270 -5.882964 -14.914276 -14.671964 5.789646 39.497920 0.854790 -0.294960 -25.483600 -16.525501 -31.991537 5.775049 -11.776834 -12.459670 -17.864499 66.871904 -59.359277 -42.730261 -4.157823 1.818299 0.974470 0.130880 -0.006040 -0.017410 12.183584 36.185837 11.908293 24.861603 14.853993 -24.354284 -87.685160 65.277393 -63.547833 1.422925 1.159494 -0.634400 0.793610 0.833850 -0.037060 
